<svg xmlns="http://www.w3.org/2000/svg" viewBox="0 0 180 24"><path d="M 29.255 0 C 27.88 0 26.765 1.115 26.765 2.49 L 26.765 21.785 C 26.765 23.16 27.88 24.275 29.256 24.275 C 30.631 24.275 31.746 23.16 31.746 21.785 L 31.746 2.49 C 31.746 1.83 31.484 1.196 31.016 0.729 C 30.549 0.262 29.916 0 29.255 0 Z M 54.254 0.729 L 34.959 20.024 C 33.999 20.999 34.005 22.565 34.972 23.533 C 35.94 24.5 37.506 24.506 38.481 23.546 L 57.776 4.251 C 58.748 3.278 58.748 1.702 57.776 0.729 C 56.803 -0.243 55.227 -0.243 54.254 0.729 Z M 20.024 0.729 L 0.729 20.024 C 0.093 20.652 -0.159 21.572 0.07 22.437 C 0.299 23.301 0.974 23.976 1.839 24.205 C 2.703 24.434 3.623 24.183 4.251 23.546 L 23.546 4.251 C 24.506 3.276 24.5 1.71 23.533 0.742 C 22.565 -0.225 20.999 -0.231 20.024 0.729 Z M 85.712 15.421 L 76.477 1.612 L 72.108 1.612 L 72.108 22.663 L 76.242 22.663 L 76.242 8.15 L 86.093 22.663 L 89.846 22.663 L 89.846 1.612 L 85.712 1.612 L 85.712 15.421 Z M 127.363 16.594 L 122.496 1.612 L 116.515 1.612 L 116.515 22.663 L 120.561 22.663 L 120.561 7.242 L 125.633 22.663 L 128.917 22.663 L 133.988 7.242 L 133.988 22.663 L 138.093 22.663 L 138.093 1.612 L 132.2 1.612 Z M 177.471 11.668 C 176.982 11.375 176.396 11.107 175.712 10.862 C 175.028 10.618 173.933 10.329 172.428 9.997 C 171.568 9.802 170.967 9.66 170.625 9.572 C 170.283 9.484 169.995 9.401 169.761 9.323 C 169.194 9.108 168.783 8.849 168.529 8.546 C 168.275 8.243 168.148 7.867 168.148 7.418 C 168.148 6.655 168.466 6.044 169.101 5.585 C 169.736 5.126 170.571 4.896 171.607 4.896 C 172.663 4.896 173.621 5.136 174.48 5.615 C 175.341 6.093 176.122 6.821 176.826 7.799 L 179.67 5.014 C 178.868 3.86 177.764 2.951 176.357 2.287 C 174.95 1.622 173.406 1.29 171.725 1.29 C 170.689 1.29 169.707 1.432 168.778 1.715 C 167.85 1.998 167.034 2.404 166.33 2.932 C 165.548 3.518 164.947 4.231 164.527 5.072 C 164.107 5.912 163.897 6.831 163.897 7.828 C 163.897 8.746 164.063 9.553 164.395 10.247 C 164.727 10.94 165.236 11.532 165.92 12.02 C 166.409 12.353 166.985 12.65 167.649 12.914 C 168.314 13.178 169.243 13.447 170.434 13.72 C 171.295 13.916 171.988 14.078 172.516 14.204 C 173.044 14.331 173.406 14.424 173.601 14.483 C 174.324 14.717 174.837 15.001 175.14 15.333 C 175.443 15.666 175.594 16.095 175.594 16.623 C 175.594 17.483 175.248 18.157 174.554 18.646 C 173.86 19.135 172.937 19.379 171.783 19.379 C 170.611 19.379 169.487 19.081 168.412 18.485 C 167.337 17.889 166.418 17.043 165.656 15.949 L 162.695 18.822 C 163.516 20.073 164.757 21.079 166.418 21.842 C 168.08 22.604 169.819 22.985 171.636 22.985 C 172.731 22.985 173.762 22.838 174.73 22.545 C 175.697 22.252 176.552 21.832 177.295 21.285 C 178.136 20.679 178.775 19.936 179.216 19.057 C 179.655 18.177 179.875 17.219 179.875 16.184 C 179.875 15.167 179.68 14.287 179.289 13.545 C 178.898 12.802 178.292 12.177 177.471 11.669 Z M 103.18 1.29 C 97.189 1.29 92.333 6.147 92.333 12.137 C 92.333 18.128 97.189 22.985 103.18 22.985 C 109.171 22.985 114.028 18.128 114.028 12.137 C 114.028 6.147 109.171 1.29 103.18 1.29 Z M 107.888 17.253 C 106.687 18.553 105.123 19.203 103.197 19.203 C 101.249 19.203 99.674 18.558 98.473 17.268 C 97.272 15.978 96.672 14.268 96.672 12.138 C 96.672 10.008 97.272 8.297 98.473 7.007 C 99.674 5.717 101.249 5.072 103.197 5.072 C 105.124 5.072 106.687 5.722 107.888 7.021 C 109.088 8.321 109.689 10.026 109.689 12.137 C 109.689 14.248 109.088 15.954 107.888 17.253 Z M 151.428 1.29 C 145.437 1.29 140.58 6.147 140.58 12.137 C 140.58 18.128 145.437 22.985 151.428 22.985 C 157.419 22.985 162.275 18.128 162.275 12.137 C 162.275 6.147 157.419 1.29 151.428 1.29 Z M 156.135 17.253 C 154.934 18.553 153.371 19.203 151.445 19.203 C 149.496 19.203 147.922 18.558 146.721 17.268 C 145.52 15.978 144.919 14.268 144.919 12.138 C 144.919 10.008 145.52 8.297 146.721 7.007 C 147.922 5.717 149.496 5.072 151.445 5.072 C 153.371 5.072 154.934 5.722 156.135 7.021 C 157.336 8.321 157.937 10.026 157.937 12.137 C 157.937 14.248 157.336 15.954 156.135 17.253 Z" fill="#0C1523"></path></svg>
